<svg width="24" height="24" viewBox="0 0 24 24" fill="none" xmlns="http://www.w3.org/2000/svg">
<g clip-path="url(#clip0_479_132)">
<path d="M12 0C5.37258 0 0 5.37258 0 12C0 18.6274 5.37258 24 12 24C18.6274 24 24 18.6274 24 12C24 5.37258 18.6274 0 12 0ZM12 21.75C6.61523 21.75 2.25 17.3848 2.25 12C2.25 6.61523 6.61523 2.25 12 2.25C17.3848 2.25 21.75 6.61523 21.75 12C21.75 17.3848 17.3848 21.75 12 21.75Z" fill="white"/>
<path d="M8.31432 16.5643L10.4357 18.6857L17.1213 12L10.4356 5.31433L8.31436 7.43561L12.8787 12L8.31432 16.5643Z" fill="white"/>
</g>
<defs>
<clipPath id="clip0_479_132">
<rect width="24" height="24" fill="white"/>
</clipPath>
</defs>
</svg>
