<svg width="24" height="24" viewBox="0 0 24 24" fill="none" xmlns="http://www.w3.org/2000/svg">
<path d="M11.955 1.905C11.9343 1.90875 11.9137 1.91438 11.895 1.92C11.6718 1.97063 11.5143 2.17125 11.52 2.4V5.28C11.5181 5.4525 11.6081 5.61375 11.7581 5.70188C11.9081 5.78813 12.0918 5.78813 12.2418 5.70188C12.3918 5.61375 12.4818 5.4525 12.48 5.28V2.4C12.4856 2.26125 12.4293 2.12813 12.33 2.03438C12.2287 1.93875 12.0918 1.89188 11.955 1.905ZM5.11497 4.725C4.93497 4.75688 4.7906 4.88813 4.73997 5.0625C4.68935 5.23875 4.74185 5.42625 4.87497 5.55L6.91497 7.59C7.03122 7.7325 7.21685 7.79813 7.39685 7.75688C7.57497 7.71563 7.7156 7.575 7.75685 7.39688C7.7981 7.21688 7.73247 7.03125 7.58997 6.915L5.54997 4.875C5.4506 4.76813 5.30622 4.71375 5.15997 4.725C5.14497 4.725 5.12997 4.725 5.11497 4.725ZM18.735 4.725C18.6262 4.74 18.525 4.79438 18.45 4.875L16.41 6.915C16.2675 7.03125 16.2018 7.21688 16.2431 7.39688C16.2843 7.575 16.425 7.71563 16.6031 7.75688C16.7831 7.79813 16.9687 7.7325 17.085 7.59L19.125 5.55C19.275 5.4075 19.3181 5.18438 19.23 4.99688C19.14 4.8075 18.9412 4.69875 18.735 4.725ZM12 7.2C9.35247 7.2 7.19997 9.3525 7.19997 12C7.19997 14.6475 9.35247 16.8 12 16.8C14.6475 16.8 16.8 14.6475 16.8 12C16.8 9.3525 14.6475 7.2 12 7.2ZM2.26497 11.52C2.0006 11.5575 1.81497 11.8031 1.85247 12.0675C1.88997 12.3319 2.1356 12.5175 2.39997 12.48H5.27997C5.45247 12.4819 5.61372 12.3919 5.70185 12.2419C5.7881 12.0919 5.7881 11.9081 5.70185 11.7581C5.61372 11.6081 5.45247 11.5181 5.27997 11.52H2.39997C2.38497 11.52 2.36997 11.52 2.35497 11.52C2.33997 11.52 2.32497 11.52 2.30997 11.52C2.29497 11.52 2.27997 11.52 2.26497 11.52ZM18.585 11.52C18.3206 11.5575 18.135 11.8031 18.1725 12.0675C18.21 12.3319 18.4556 12.5175 18.72 12.48H21.6C21.7725 12.4819 21.9337 12.3919 22.0218 12.2419C22.1081 12.0919 22.1081 11.9081 22.0218 11.7581C21.9337 11.6081 21.7725 11.5181 21.6 11.52H18.72C18.705 11.52 18.69 11.52 18.675 11.52C18.66 11.52 18.645 11.52 18.63 11.52C18.615 11.52 18.6 11.52 18.585 11.52ZM7.19997 16.26C7.09122 16.275 6.98997 16.3294 6.91497 16.41L4.87497 18.45C4.73247 18.5663 4.66685 18.7519 4.7081 18.9319C4.74935 19.11 4.88997 19.2506 5.0681 19.2919C5.2481 19.3331 5.43372 19.2675 5.54997 19.125L7.58997 17.085C7.73247 16.9481 7.7756 16.7363 7.69872 16.5544C7.62372 16.3725 7.44185 16.2563 7.24497 16.26C7.22997 16.26 7.21497 16.26 7.19997 16.26ZM16.65 16.26C16.47 16.2919 16.3256 16.4231 16.275 16.5975C16.2243 16.7738 16.2768 16.9613 16.41 17.085L18.45 19.125C18.5662 19.2675 18.7518 19.3331 18.9318 19.2919C19.11 19.2506 19.2506 19.11 19.2918 18.9319C19.3331 18.7519 19.2675 18.5663 19.125 18.45L17.085 16.41C16.995 16.3144 16.8712 16.2619 16.74 16.26C16.725 16.26 16.71 16.26 16.695 16.26C16.68 16.26 16.665 16.26 16.65 16.26ZM11.955 18.225C11.9343 18.2288 11.9137 18.2344 11.895 18.24C11.6718 18.2906 11.5143 18.4913 11.52 18.72V21.6C11.5181 21.7725 11.6081 21.9338 11.7581 22.0219C11.9081 22.1081 12.0918 22.1081 12.2418 22.0219C12.3918 21.9338 12.4818 21.7725 12.48 21.6V18.72C12.4856 18.5813 12.4293 18.4481 12.33 18.3544C12.2287 18.2588 12.0918 18.2119 11.955 18.225Z" fill="white"/>
</svg>
