<svg width="22" height="21" viewBox="0 0 22 21" fill="none" xmlns="http://www.w3.org/2000/svg">
<path d="M6.23377 0.864193C3.89611 1.93696 1.99481 3.78449 0.872728 6.10881C0.124675 7.62856 0 8.28414 0 10.4297C0 12.5752 0.124675 13.2308 0.872728 14.7803C1.99481 17.0748 4.11429 19.1012 6.54546 20.1739C8.13507 20.8891 8.82079 21.0083 11.0649 21.0083C13.3091 21.0083 13.9948 20.8891 15.5844 20.1739C18.4831 18.8628 20.8831 16.3299 21.787 13.5288L21.974 12.903L20.1974 13.499C12.6857 15.9127 5.32988 8.88012 7.85455 1.69856C8.19741 0.774797 8.38442 2.28882e-05 8.29092 2.28882e-05C8.19741 2.28882e-05 7.26234 0.387409 6.23377 0.864193Z" fill="white"/>
</svg>
