<svg width="24" height="24" viewBox="0 0 24 24" fill="none" xmlns="http://www.w3.org/2000/svg">
<g clip-path="url(#clip0_437_53)">
<path d="M12 0C5.37258 0 0 5.37258 0 12C0 18.6274 5.37258 24 12 24C18.6274 24 24 18.6274 24 12C24 5.37258 18.6274 0 12 0ZM12 21.75C6.61523 21.75 2.25 17.3848 2.25 12C2.25 6.61523 6.61523 2.25 12 2.25C17.3848 2.25 21.75 6.61523 21.75 12C21.75 17.3848 17.3848 21.75 12 21.75ZM7.5 7.5H10.5V16.5H7.5V7.5ZM13.5 7.5H16.5V16.5H13.5V7.5Z" fill="#4E4E4E"/>
</g>
<defs>
<clipPath id="clip0_437_53">
<rect width="24" height="24" fill="white"/>
</clipPath>
</defs>
</svg>
